<svg width="19" height="20" viewBox="0 0 19 20" fill="none" xmlns="http://www.w3.org/2000/svg">
<path d="M18.8792 9.63046C18.7095 9.39826 14.6652 3.94507 9.49991 3.94507C4.33461 3.94507 0.290122 9.39827 0.120569 9.63024C-0.0401895 9.85052 -0.0401895 10.1493 0.120569 10.3696C0.290122 10.6018 4.33461 16.055 9.49991 16.055C14.6652 16.055 18.7095 10.6017 18.8792 10.3698C19.0402 10.1495 19.0402 9.85052 18.8792 9.63046ZM9.49991 14.8022C5.69511 14.8022 2.39976 11.1828 1.42426 9.99959C2.39849 8.81531 5.68695 5.19781 9.49991 5.19781C13.3045 5.19781 16.5996 8.81657 17.5756 10.0004C16.6013 11.1847 13.3129 14.8022 9.49991 14.8022Z" fill="#3C71FF"/>
<path d="M9.49991 6.2417C7.42765 6.2417 5.74165 7.92769 5.74165 9.99996C5.74165 12.0722 7.42765 13.7582 9.49991 13.7582C11.5722 13.7582 13.2582 12.0722 13.2582 9.99996C13.2582 7.92769 11.5722 6.2417 9.49991 6.2417ZM9.49991 12.5054C8.11833 12.5054 6.99443 11.3815 6.99443 9.99996C6.99443 8.61841 8.11836 7.49448 9.49991 7.49448C10.8815 7.49448 12.0054 8.61841 12.0054 9.99996C12.0054 11.3815 10.8815 12.5054 9.49991 12.5054Z" fill="#3C71FF"/>
</svg>
